<svg width="146" height="30" viewBox="0 0 146 30" fill="none" xmlns="http://www.w3.org/2000/svg">
<path d="M127.649 1L144.819 14.7672" stroke="#FF3434"/>
<line y1="-0.5" x2="21.9269" y2="-0.5" transform="matrix(-0.806157 0.591701 -0.496787 -0.867873 145.026 14)" stroke="#FF3434"/>
<line x1="73.9997" y1="14.5086" x2="0.536681" y2="14.4713" stroke="#FF3434"/>
<line x1="0.5" y1="6.00861" x2="0.5" y2="24.0086" stroke="#FF3434"/>
<rect x="74.5" y="0.508606" width="23" height="28" stroke="#FF3434"/>
<line x1="86" x2="86" y2="29.0172" stroke="#FF3434"/>
<path d="M97.5 0.5H114.5C122.232 0.5 128.5 6.76801 128.5 14.5C128.5 22.232 122.232 28.5 114.5 28.5H97.5V0.5Z" stroke="#FF3434"/>
<path d="M128 14H98L97.5 20L98 28H102.839H114.935L120.258 27L124.613 24L127.516 18.5L128 14Z" fill="#FF3434" stroke="#FF3434"/>
</svg>
