<svg width="186" height="34" viewBox="0 0 186 34" fill="none" xmlns="http://www.w3.org/2000/svg">
<rect x="40.5" y="2.5" width="28" height="28" fill="#FF3434" stroke="#FF3434"/>
<path d="M182.393 18.1989L160.59 31.4262L161.11 4.22778L182.393 18.1989Z" fill="#FF3434"/>
<line x1="79.9997" y1="17.5" x2="6.53668" y2="17.4626" stroke="#FF3434"/>
<line x1="6.5" y1="9" x2="6.5" y2="27" stroke="#FF3434"/>
<rect x="80.5" y="3.5" width="76" height="28" rx="14" stroke="#FF3434"/>
<path d="M81 17H157L156 21L154 25L152 27.5L148.5 30.5L144 31.5H122H93.5L90 30.5L84.5 27.5L81 21.5V17Z" fill="#FF3434"/>
<rect x="108.5" y="3.5" width="16" height="28" fill="white" stroke="#FF3434"/>
<line x1="116.5" y1="3" x2="116.5" y2="32" stroke="#FF3434"/>
<path d="M63.2119 8.98633H56.3564V28H53.5586V8.98633H46.7178V6.67188H63.2119V8.98633Z" fill="white"/>
</svg>
