<svg width="171" height="42" viewBox="0 0 171 42" fill="none" xmlns="http://www.w3.org/2000/svg">
<line x1="73.9997" y1="27.2727" x2="0.536681" y2="27.2354" stroke="#FF3434"/>
<line x1="0.5" y1="18.7727" x2="0.5" y2="36.7727" stroke="#FF3434"/>
<rect x="74.5" y="13.2727" width="76" height="28" rx="14" stroke="#FF3434"/>
<line x1="89.5" y1="13.7727" x2="89.5" y2="41.7727" stroke="#FF3434"/>
<line x1="97.5" y1="13.7727" x2="97.5" y2="41.7727" stroke="#FF3434"/>
<line x1="105.5" y1="13.7727" x2="105.5" y2="41.7727" stroke="#FF3434"/>
<path d="M106 26.7727H151L148.5 35.2727L145 38.7727L140 40.7727H106V26.7727Z" fill="#FF3434"/>
<path d="M75 26.7727H89V40.7727H84L78.5 37.2727L75 32.7727V26.7727Z" fill="#FF3434"/>
<rect x="40.5" y="13.2727" width="28" height="28" fill="white" stroke="#FF3434"/>
<path d="M68 13.7323L68 40.7727L40.5 13.7323L68 13.7323Z" fill="#FF3434"/>
<path d="M150.323 14L169.765 27.7672" stroke="#FF3434"/>
<line x1="170.272" y1="27.4196" x2="150.256" y2="40.3937" stroke="#FF3434"/>
</svg>
