<svg width="50" height="15" viewBox="0 0 50 15" fill="none" xmlns="http://www.w3.org/2000/svg">
<line y1="-0.5" x2="28.255" y2="-0.5" transform="matrix(-1 -0.000661006 0.000391128 -1 28.4615 7.5)" stroke="#FF3434"/>
<line x1="0.5" y1="3.5" x2="0.5" y2="12.5" stroke="#FF3434"/>
<rect x="28.9615" y="0.5" width="20.5385" height="14" stroke="#FF3434"/>
<path d="M34.5 4.75C34.5 5.27059 34.3371 5.72364 34.0967 6.03613C33.8568 6.34809 33.5599 6.5 33.2692 6.5C32.9785 6.5 32.6817 6.34809 32.4417 6.03613C32.2013 5.72364 32.0385 5.27059 32.0385 4.75C32.0385 4.22941 32.2013 3.77636 32.4417 3.46387C32.6817 3.15191 32.9785 3 33.2692 3C33.5599 3 33.8568 3.15191 34.0967 3.46387C34.3371 3.77636 34.5 4.22941 34.5 4.75Z" fill="white" stroke="#FF3434"/>
<path d="M34.5 10.25C34.5 10.7706 34.3371 11.2236 34.0967 11.5361C33.8568 11.8481 33.5599 12 33.2692 12C32.9785 12 32.6817 11.8481 32.4417 11.5361C32.2013 11.2236 32.0385 10.7706 32.0385 10.25C32.0385 9.72941 32.2013 9.27636 32.4417 8.96387C32.6817 8.65191 32.9785 8.5 33.2692 8.5C33.5599 8.5 33.8568 8.65191 34.0967 8.96387C34.3371 9.27636 34.5 9.72941 34.5 10.25Z" fill="white" stroke="#FF3434"/>
<path d="M46.4231 7.5C46.4231 8.77998 46.0234 9.92054 45.4003 10.7307C44.7775 11.5403 43.9518 12 43.0769 12C42.2021 12 41.3764 11.5403 40.7536 10.7307C40.1304 9.92054 39.7308 8.77998 39.7308 7.5C39.7308 6.22002 40.1304 5.07947 40.7536 4.26932C41.3764 3.45972 42.2021 3 43.0769 3C43.9518 3 44.7775 3.45972 45.4003 4.26932C46.0234 5.07947 46.4231 6.22002 46.4231 7.5Z" fill="white" stroke="#FF3434"/>
</svg>
